<?xml version="1.0" encoding="UTF-8"?>
<svg width="100px" height="100px" viewBox="0 0 100 100" version="1.1" xmlns="http://www.w3.org/2000/svg" xmlns:xlink="http://www.w3.org/1999/xlink">
    <title>craftcms-icons</title>
    <g id="craftcms-icons" stroke="none" stroke-width="1" fill="none" fill-rule="evenodd">
        <circle id="Oval" fill="#EE3742" fill-rule="nonzero" cx="50" cy="50" r="50"></circle>
        <path d="M50,14 L50.5333765,14.0038709 L51.2023609,14.0197006 L51.8149221,14.0449549 L52.4231743,14.0802637 L53.0096691,14.1240203 L53.6717765,14.1849496 L54.2408141,14.2471547 L54.8044753,14.3178078 L55.1089119,14.3597323 L55.7277881,14.4531568 L56.28948,14.5475352 L56.8485268,14.6506138 L57.1927979,14.7186692 L57.8075901,14.8489628 L58.3926683,14.9834972 L58.9065578,15.1102414 L59.1977802,15.185666 C59.8511349,15.3578111 60.4975725,15.5479741 61.1361786,15.7555035 L61.6998195,15.94387 L62.1224218,16.091989 L62.6354611,16.2798602 L63.0494157,16.4379802 L63.5932347,16.6547199 L64.0800289,16.8575643 L64.6328527,17.0982396 L64.9184664,17.2269557 L65.2031781,17.3582749 C66.4293731,17.9303416 67.6183923,18.569712 68.7650893,19.2714664 L69.2663073,19.5838796 L69.8047228,19.9326991 L70.3855687,20.3242105 L70.5740464,20.4545139 L71.0971019,20.8266424 L71.6134443,21.2077651 L72.2297646,21.6813112 L72.454401,21.8596319 L72.7198594,22.0737846 L72.9839792,22.2907141 L73.3611241,22.6085059 L73.734374,22.9315988 L74.1043462,23.260479 L74.2734344,23.414249 C74.7912402,23.8870824 75.2949958,24.3748032 75.784169,24.876749 L76.2681581,25.3833396 C76.5025767,25.6331363 76.7331716,25.8862006 76.9601672,26.1425256 L77.2714235,26.498862 L77.5781662,26.8592532 L77.9152188,27.2662881 L78.4302656,27.912938 L78.7728223,28.3603641 L79.1375713,28.8532263 L79.5398952,29.4179421 C79.7228926,29.6802791 79.9024403,29.9449042 80.0785253,30.2120136 L80.3788735,30.6751602 L80.6722266,31.1433705 C80.8944287,31.5038725 81.1104615,31.8687745 81.3201625,32.237745 L81.6573316,32.8446992 L81.9140938,33.3260628 L82.0225524,33.5350152 C82.1563418,33.7945836 82.2867363,34.0554355 82.414033,34.3180682 L82.66466,34.8461705 L82.8790626,35.3162946 L82.9813663,35.5472981 C83.1585377,35.9509277 83.3285491,36.3586177 83.4911992,36.7700212 L83.710794,37.3397026 L83.8940957,37.83873 L84.1137451,38.469309 L84.2389934,38.8469019 C84.2899293,39.0034438 84.3395903,39.1596509 84.3882102,39.3163162 L84.5349344,39.8011793 L84.6751514,40.2895397 L84.8243098,40.8401662 L84.964884,41.3941044 C85.0579682,41.7735869 85.1449839,42.1551859 85.2258669,42.5389563 L85.3425836,43.1162474 L85.4480362,43.6854566 C85.5126825,44.0508378 85.5718029,44.4180187 85.6253215,44.7869782 L85.7013886,45.3417488 L85.7560601,45.7866809 L85.8334036,46.5141956 C85.8637411,46.8299555 85.8899842,47.1466931 85.9121006,47.4645674 L85.9524508,48.1335674 L85.9831003,48.8862696 L85.9965236,49.4945176 L86,50 L85.9982795,50.3556649 L85.9931306,50.710399 C85.985123,51.1240539 85.9701442,51.5358906 85.9483049,51.9459064 L85.9220521,52.3880743 L85.8773027,52.993641 L85.8260461,53.5615484 L85.762894,54.1542802 C85.7017924,54.6859917 85.6291437,55.2139754 85.5451904,55.7381116 L85.4108123,56.5214152 L85.3100346,57.0497473 L85.1934331,57.6133006 L85.058086,58.2165615 L84.9383338,58.7134481 L84.803479,59.2388782 L84.6284763,59.875987 L84.5222723,60.2416715 L84.3695171,60.7437851 L84.2095795,61.2430519 L84.1131283,61.532526 L84.014364,61.8207148 L83.8318409,62.333365 L83.5702207,63.0283192 L83.3569832,63.5645197 C83.1877139,63.9803326 83.0111826,64.3916331 82.827295,64.7988993 C82.6915627,65.0995124 82.5518375,65.3978967 82.4081733,65.6940154 L82.1742975,66.1671774 L81.9337001,66.6364336 L81.6391731,67.1888301 L81.284713,67.8244843 L81.1480754,68.0616867 L80.8669382,68.5370358 L80.5790304,69.0072296 C80.3853241,69.3182003 80.187094,69.6258736 79.9843809,69.9302414 L79.6765587,70.3848879 L79.3368191,70.8699729 L79.145816,71.1354286 L78.7974844,71.6068575 L78.5409323,71.9441093 L78.1482626,72.4448853 L77.8341998,72.8327189 L77.6568242,73.0470108 L77.3564228,73.4024359 L76.9423197,73.8776128 L76.5838726,74.2757953 L76.2770213,74.6074546 L75.922004,74.9810422 L75.4022153,75.5093609 L75.1492916,75.7587711 L74.639427,76.2470318 L74.2119977,76.6420245 C73.4087186,77.3724631 72.5723435,78.067016 71.7053322,78.7232173 L71.2611324,79.0540883 L70.7419548,79.4276334 L70.069038,79.8914759 L69.7763584,80.0863023 L69.4820361,80.2781085 L68.8512637,80.6756288 L68.2120552,81.0602059 L67.8471783,81.2717443 L67.4107433,81.5173419 L67.1225963,81.6751426 L66.4642253,82.0230077 L65.7978388,82.3575959 L65.24397,82.6226622 L64.9381301,82.7640717 L64.4298196,82.9914406 L64.1101972,83.1295866 C63.4491855,83.4114756 62.7780789,83.6741404 62.0975362,83.9168983 L61.4410795,84.1438105 L60.7405141,84.3704853 L60.0337414,84.5831488 L59.6451289,84.6933541 L59.0329619,84.8573421 L58.7668617,84.9250073 L58.1734849,85.0681143 L57.4838818,85.2210536 L56.7890047,85.3608052 L56.2913673,85.4521322 L55.7226977,85.5476567 L55.3845074,85.6000325 L54.7477472,85.6897176 L54.2508178,85.7516699 L53.5294947,85.8291796 L52.8416553,85.8894925 L52.3250228,85.9261273 L51.6319881,85.9636675 L51.2555141,85.9785166 L50.6554324,85.9941532 L50,86 C49.6723567,86 49.3457356,85.995623 49.0201922,85.9869243 L48.2856507,85.9599001 L47.5547675,85.9182635 L47.0003482,85.8768074 L46.1784239,85.7995599 L45.4983253,85.7212692 L44.9754472,85.6521504 L44.3343021,85.5567144 L43.7930535,85.4669076 L43.261677,85.370432 L42.5974253,85.2381395 L42.0821683,85.1264776 L41.4650512,84.9822186 L40.6769142,84.781074 L40.0428642,84.6052733 L39.4791017,84.4383199 L38.9249459,84.2642995 L38.3886433,84.086385 L37.8717793,83.9059374 L37.3230501,83.7045569 L37.0429212,83.5978004 C36.7593326,83.4883551 36.4780974,83.3756803 36.1986406,83.259586 L35.579016,82.9953092 L35.0791715,82.7719677 L34.678488,82.5862529 L34.4245405,82.4654229 L33.9026381,82.2093519 L33.3856385,81.9452128 L32.8904597,81.6822116 L32.3924869,81.4076032 C31.3123237,80.8007256 30.2671233,80.1400785 29.26004,79.4290419 L28.8122211,79.1078765 L28.3692004,78.7796674 L27.7792817,78.3257976 L27.3679227,77.9977826 L26.8893918,77.6038663 L26.6988672,77.4428432 C26.5539925,77.3199388 26.4099649,77.1955609 26.2669401,77.0700674 L25.7561602,76.6130641 L25.2537318,76.1465252 C24.7466828,75.666238 24.2532255,75.1712123 23.7744178,74.6622474 L23.2384102,74.080099 L22.8887084,73.6857652 L22.5444582,73.2861836 L22.2306765,72.9117215 L21.9134514,72.5219957 L21.6138456,72.1438995 L21.3691485,71.8268373 L21.0035535,71.3397389 L20.5526598,70.7140188 L20.2532618,70.2825382 L19.9126298,69.774938 L19.6420691,69.357703 L19.3769762,68.9366094 C19.1098366,68.5053949 18.8515443,68.0682026 18.602354,67.6252318 L18.2353727,66.9565261 L17.9793534,66.4689609 C17.5662285,65.6671868 17.1824276,64.8482532 16.8292558,64.0132918 L16.5701403,63.3840832 L16.4299354,63.0288244 L16.2529556,62.5634586 C16.1167708,62.1978667 15.9863231,61.8293095 15.8617506,61.4579994 L15.6793154,60.898996 L15.5068863,60.3396621 L15.3208057,59.6960256 L15.1696638,59.1368845 C15.0915611,58.83828 15.0171829,58.5381647 14.946596,58.2365904 C14.8941888,58.0127418 14.8437778,57.7876075 14.7954863,57.5616877 L14.6792056,56.9953643 L14.5892968,56.5220396 L14.4839076,55.9169126 L14.3727932,55.2000285 C14.3131951,54.7880624 14.2605812,54.3739386 14.2150662,53.957715 L14.1521322,53.3318118 L14.1063324,52.7876677 L14.0623579,52.1366614 L14.0404327,51.7214239 C14.0253234,51.4005734 14.014403,51.078089 14.0077507,50.7545559 L14,50 L14.0080835,49.2294303 L14.0238212,48.6780506 L14.0377286,48.3370167 L14.0765746,47.6329901 C14.1070785,47.1630219 14.1466007,46.6955119 14.1949698,46.2306314 L14.2666318,45.6065096 C14.4508337,44.0916352 14.729139,42.6057995 15.0955261,41.1550222 L15.2854052,40.4317723 C15.3877933,40.0613956 15.4956891,39.6930548 15.6091749,39.3270933 L15.7828818,38.7799264 C15.9427227,38.2935833 16.1123238,37.8117842 16.2916528,37.3347915 L16.5673372,36.622914 C16.8292143,35.9700613 17.1093248,35.3266359 17.407269,34.6933021 L17.7111429,34.0633566 L17.946366,33.5953599 C18.1220897,33.253252 18.3028644,32.9144352 18.4887546,32.5789395 L18.7708504,32.0785534 L18.872844,31.9029933 C19.0072621,31.671657 19.1445467,31.4419694 19.284299,31.2139578 L19.6419593,30.6429838 L19.9221925,30.2107502 L20.084185,29.9676131 C20.2301258,29.7496822 20.3783093,29.5339494 20.5287649,29.3199297 L20.8744576,28.8369753 L21.2283685,28.3587834 L21.5043949,27.9971498 L21.7252842,27.7146301 L21.9583458,27.4222351 L22.4011007,26.8837296 L22.738309,26.4875649 C22.9871605,26.1991738 23.2404099,25.9149564 23.4980097,25.6348954 L23.8876665,25.2179188 L24.3903513,24.6988895 L24.5704599,24.5179835 C24.8445226,24.2444236 25.1227394,23.9755126 25.4051434,23.711187 L25.8322401,23.3178851 L26.1488486,23.0342424 L26.7128528,22.5453279 L27.3749286,21.9965894 L27.944107,21.5455239 L28.124073,21.4066958 C28.4225235,21.1780283 28.7247658,20.9538399 29.0306263,20.7342972 L29.492109,20.4084883 L29.9280525,20.1104815 L30.308972,19.8576806 L30.7122104,19.5975272 L31.1192371,19.3425652 L31.5622054,19.0735525 L32.0094721,18.8106873 L32.6629501,18.4419743 L33.0924149,18.2093271 L33.555486,17.9668454 L34.0132987,17.7354748 L34.5666397,17.4666644 L35.125228,17.2070691 L35.5831595,17.0028781 C35.940482,16.8465363 36.3009027,16.6958019 36.6642631,16.5508073 L37.2102696,16.3381001 L37.912974,16.0793543 L38.3879314,15.9138575 L39.1595434,15.6608213 C40.0448013,15.3816224 40.9448324,15.1357101 41.8581684,14.9245525 L42.5456422,14.7727237 L42.8613226,14.7072657 L43.2942536,14.6234152 L43.650723,14.5581235 L44.1864876,14.4667104 L44.5687931,14.4067986 L44.9524231,14.3509025 L45.6702077,14.2576005 L46.3783407,14.1798444 L46.9662924,14.126018 L47.3265535,14.0977663 L47.9891576,14.0552011 L48.3710118,14.0361988 L48.9729951,14.0143658 L49.3055111,14.006565 L50,14 Z M50,16 C47.8426765,16 45.7322808,16.200922 43.686505,16.5850739 C45.3892308,17.7434555 47.023897,18.9940505 48.5834755,20.3296614 C48.016774,20.7046822 47.5022499,21.1494615 47.0504215,21.6517635 C45.1404958,20.033908 43.1149194,18.5478787 40.9883418,17.2074778 L40.7889522,17.2624553 C27.9369092,20.8711274 18.1659276,31.8442786 16.3165154,45.3414005 C18.3473726,45.115503 20.4101977,45 22.5,45 L23,45.004 L23.0009505,47.002298 C22.8341489,47.0007667 22.667164,47 22.5,47 C20.334236,47 18.198529,47.1286898 16.1001088,47.3788399 C16.0335459,48.2448383 16,49.1185016 16,50 C16,61.0891151 21.3087302,70.9383098 29.5233645,77.1447583 C29.1779109,74.6457282 29,72.0936408 29,69.5 C29,66.6096393 29.2209464,63.7708833 29.6468708,60.9997005 L31.67176,61.0001601 C31.2295766,63.7682285 31,66.607304 31,69.5 C31,72.643672 31.2711418,75.7240155 31.7913151,78.7189202 C37.0567468,82.0633074 43.302204,84 50,84 C54.4040125,84 58.6124573,83.1626752 62.4748203,81.6385397 C63.4550105,79.0809612 64.2443618,76.429303 64.8256257,73.7007715 C65.4578633,73.8790906 66.121513,73.981444 66.8064758,73.9977051 C66.3387213,76.2230189 65.7368329,78.3984693 65.0104525,80.5160937 C66.9885595,79.5408998 68.8596851,78.3783327 70.5990623,77.0518267 C70.05654,75.9386552 69.476311,74.8478711 68.8601787,73.7806858 C69.5280373,73.6236235 70.1640183,73.3805895 70.7557316,73.0653983 C71.2588288,73.9476507 71.7382388,74.8455019 72.1932742,75.7576412 C79.4236789,69.5227294 84,60.2957932 84,50 C84,36.6890661 76.3508369,25.16469 65.2083354,19.5826963 L64.4465007,19.8852528 C62.7252118,20.5816469 61.0484207,21.3650157 59.4215763,22.2299103 C59.0083174,21.6722753 58.5214122,21.1693699 57.9766985,20.7360208 C59.5061891,19.9022378 61.080005,19.1380744 62.6931328,18.448132 C58.7714845,16.8692784 54.4872577,16 50,16 Z M66,60 C69.3137085,60 72,62.6862915 72,66 C72,69.3137085 69.3137085,72 66,72 C62.6862915,72 60,69.3137085 60,66 C60,62.6862915 62.6862915,60 66,60 Z M66,62 C63.790861,62 62,63.790861 62,66 C62,68.209139 63.790861,70 66,70 C68.209139,70 70,68.209139 70,66 C70,63.790861 68.209139,62 66,62 Z M56.2867388,56.1550825 L56.8302564,56.6184916 L57.3811984,57.1044777 L57.9439522,57.6151095 C58.0389726,57.7023835 58.134668,57.7907706 58.2311297,57.8803139 L58.8198282,58.4317924 L59.7469612,59.3155633 L61.0884659,60.6103497 L60.9484491,60.7673343 C60.5524191,61.2249376 60.2074222,61.7279226 59.9223076,62.2674401 L57.5615962,59.9475505 L56.7910946,59.2035509 L56.2997261,58.7399069 C56.218998,58.6646409 56.1387893,58.5903491 56.0590039,58.5169867 L55.584604,58.0876082 C54.8783209,57.4591974 54.19078,56.8988279 53.4520081,56.3738988 L52.9511358,56.0288387 C51.8461405,55.291034 50.6018126,54.6120573 49.0072722,53.8936579 L49,53.89 L49.0025505,51.7140386 C52.1393299,53.0943734 54.1784807,54.3913713 56.2867388,56.1550825 Z M59.036615,32.2498745 C63.7937742,39.5496839 66.8778326,48.0386512 67.7476783,57.173271 L67.8230273,58.04182 C67.5524492,58.0141676 67.2778791,58 67,58 C66.5987472,58 66.2043939,58.0295408 65.8189965,58.0865662 C65.0880461,49.1141524 62.1411487,40.7676257 57.5272825,33.5951199 C58.0861706,33.2122438 58.5931176,32.7594016 59.036615,32.2498745 Z M45.7117577,29.9513461 C45.9321579,30.5535248 46.223185,31.1162809 46.5737872,31.6281792 L46.3668209,31.8555475 L45.6727641,32.5556726 L45.0469159,33.1765547 L44.4892763,33.7181938 L43.9998451,34.1805897 L43.7114513,34.4448298 L43.4533724,34.6738507 L43.2256083,34.8676524 C43.1901739,34.8970178 43.1560026,34.9249157 43.1230944,34.9513461 L41.5737872,33.8401672 L42.1913173,33.2802944 L43.1283703,32.4122622 L43.9164197,31.6700866 L45.3922348,30.2595056 C45.4973891,30.1582326 45.6038968,30.0555128 45.7117577,29.9513461 Z M53,20 C56.3137085,20 59,22.6862915 59,26 C59,29.3137085 56.3137085,32 53,32 C49.6862915,32 47,29.3137085 47,26 C47,22.6862915 49.6862915,20 53,20 Z M53,22 C50.790861,22 49,23.790861 49,26 C49,28.209139 50.790861,30 53,30 C55.209139,30 57,28.209139 57,26 C57,23.790861 55.209139,22 53,22 Z" id="Combined-Shape" fill="#F9B4B8"></path>
        <path d="M27,45.952381 L45,45.952381 L45,58 L27,58 L27,45.952381 Z M36.28125,35 C39.5105625,35 42.1345519,37.5857488 42.1867087,40.7952498 L42.1875,40.8926963 L42.1875,44.8571429 L40.3223684,44.8571429 L40.3223684,40.8926963 C40.3223684,38.6659699 38.5130981,36.8608515 36.28125,36.8608515 C34.073145,36.8608515 32.2786745,38.6277674 32.2407442,40.8217753 L32.2401316,40.8926963 L32.2401316,44.8226981 L30.375,44.8226981 L30.375,40.8926963 C30.375,37.63825 33.0193182,35 36.28125,35 Z" id="Shape" fill="#FFFFFF"></path>
    </g>
</svg>