<?xml version="1.0" encoding="UTF-8"?>
<svg width="100px" height="100px" viewBox="0 0 100 100" version="1.1" xmlns="http://www.w3.org/2000/svg" xmlns:xlink="http://www.w3.org/1999/xlink">
    <title>craftcms-icons</title>
    <g id="craftcms-icons" stroke="none" stroke-width="1" fill="none" fill-rule="evenodd">
        <g id="Group-Copy" transform="translate(2.400000, 2.400000)" fill="#EE3742" fill-rule="nonzero">
            <path d="M47.6,0 C53.6832633,0 59.5,1.14114822 64.8478132,3.22105637 C62.8176769,4.11300916 60.833995,5.08857856 58.9003229,6.14269606 C59.6720006,6.75660731 60.361783,7.46905674 60.9472331,8.25903966 C62.922687,7.20881041 64.9501263,6.24343461 67.0246897,5.3677734 L68.0658759,4.93744152 L68.4348812,4.79000235 C84.2817387,12.5167949 95.2,28.7833492 95.2,47.6 C95.2,61.9640419 88.8375826,74.8420616 78.7771854,83.5696214 C78.2118878,82.4548348 77.6204752,81.3571401 77.0039531,80.2759809 C76.1656925,80.7225017 75.2647195,81.0667999 74.3185865,81.2893049 C75.0168698,82.4987816 75.6826007,83.7296545 76.3144713,84.981045 L76.5252362,85.4063962 C74.2151042,87.176521 71.7380295,88.7396895 69.1217175,90.0681966 C70.0370031,87.3083036 70.8026788,84.4821135 71.4091741,81.5967489 C70.4388101,81.5737123 69.4986397,81.4287116 68.6029698,81.176093 C67.8543723,84.6901108 66.8621463,88.1141255 65.6446506,91.4298231 L65.5423378,91.7024829 C60.0050477,93.9575153 53.9476228,95.2 47.6,95.2 C38.038429,95.2 29.1353197,92.3807906 21.6765649,87.5282646 C21.02319,83.5238226 20.6833333,79.4141002 20.6833333,75.225 C20.6833333,71.9793921 20.887341,68.7814327 21.2834131,65.6433584 L21.4225343,64.5995684 L18.5618907,64.5993602 C18.092437,68.0743357 17.85,71.6213558 17.85,75.225 C17.85,78.531892 18.0541527,81.7911015 18.4517505,84.9907478 L18.4867713,85.2616061 C7.24045936,76.5552418 0,62.9231709 0,47.6 C0,46.3283579 0.0498653187,45.0683626 0.14774724,43.8218625 C2.93645623,43.5096601 5.77041614,43.35 8.64166667,43.35 C9.45913431,43.35 10.2735792,43.3629418 11.0847521,43.3887071 L12.2990262,43.4369579 L12.3528979,40.602709 C11.1229919,40.5455589 9.88570336,40.5166667 8.64166667,40.5166667 C6.05118257,40.5166667 3.48995886,40.6419453 0.962732121,40.8876544 L0.462324839,40.9393307 C3.13707862,21.836793 17.1496703,6.36910213 35.4794052,1.55695294 C38.2572339,3.3460047 40.9099135,5.31254826 43.4214304,7.43999826 C44.0615207,6.72840381 44.7904298,6.09829976 45.5932569,5.56702025 C43.6600295,3.91141926 41.6453591,2.34802955 39.5559161,0.883681867 L39.3177278,0.718017221 C42.007494,0.24609533 44.7750077,0 47.6,0 Z M70.2666667,61.7666667 C65.5722463,61.7666667 61.7666667,65.5722463 61.7666667,70.2666667 C61.7666667,74.961087 65.5722463,78.7666667 70.2666667,78.7666667 C74.961087,78.7666667 78.7666667,74.961087 78.7666667,70.2666667 C78.7666667,65.5722463 74.961087,61.7666667 70.2666667,61.7666667 Z M70.2666667,64.6 C73.3962802,64.6 75.9333333,67.1370531 75.9333333,70.2666667 C75.9333333,73.3962802 73.3962802,75.9333333 70.2666667,75.9333333 C67.1370531,75.9333333 64.6,73.3962802 64.6,70.2666667 C64.6,67.1370531 67.1370531,64.6 70.2666667,64.6 Z M44.199,49.189 L44.199,52.258 L44.5468239,52.4007983 L45.1147352,52.6418203 L46.1936356,53.1160154 C48.2788038,54.0554607 49.9412303,54.9473189 51.4158874,55.9010654 L51.7807757,56.1408548 L52.4903448,56.6296899 C53.3625061,57.2493979 54.1842665,57.903972 55.0129921,58.6201394 L55.5115223,59.0574449 L56.1835888,59.6657312 L56.524612,59.9815348 L57.2207173,60.6383638 L58.3122612,61.6923632 L61.6566024,64.9788734 C61.9931961,64.3419431 62.3887017,63.7409532 62.8358644,63.1831588 L63.1103029,62.8537236 L63.30866,62.6313287 L61.408195,60.797048 L60.0947566,59.5450393 L59.056584,58.5747193 L58.0566977,57.6646768 L57.2761966,56.9761964 L56.5062133,56.3197003 C53.4295616,53.7458574 50.4567979,51.8736178 45.7811605,49.8511953 L45.2340039,49.6171239 L44.199,49.189 Z M40.8,43.4714286 L17,43.4714286 L17,59.5 L40.8,59.5 L40.8,43.4714286 Z M60.4018712,22.4539889 C59.7735833,23.1758189 59.0554083,23.8173454 58.2636502,24.3597532 C64.7999607,34.5208031 68.974732,46.3450492 70.0102451,59.0559687 C70.5562248,58.9751828 71.1148918,58.9333333 71.6833333,58.9333333 C71.9457747,58.9333333 72.2061327,58.9422537 72.4641205,58.9598078 L72.8492887,58.9925783 L72.7425442,57.7621339 C71.5102628,44.8214225 67.1411802,32.7953856 60.4018712,22.4539889 Z M29.271875,28.9 C25.0418186,28.9 21.597278,32.2763169 21.4663601,36.490979 L21.4625,36.7398481 L21.4625,41.9684592 L23.9286184,41.9684592 L23.9294284,36.6454924 C23.9795808,33.7265079 26.3522695,31.3757415 29.271875,31.3757415 C32.1490991,31.3757415 34.4951695,33.6587552 34.6106747,36.51874 L34.6151316,36.7398481 L34.6151316,42.0142857 L37.08125,42.0142857 L37.0802038,36.6102019 C37.0112408,32.3401702 33.5417437,28.9 29.271875,28.9 Z M41.5249901,19.1977403 L41.0723327,19.6342996 L38.9815946,21.6326227 L37.8651912,22.6840381 L36.5376995,23.9137504 L35.6628652,24.7069035 L37.8577171,26.2810737 L38.3256108,25.8879551 L38.6912227,25.5635088 L39.0997806,25.1891688 L39.7931414,24.5341078 L40.5831309,23.7667859 L41.4697492,22.8872029 L42.4529962,21.895359 L42.7461986,21.5732539 C42.2495121,20.8480646 41.8372236,20.0508268 41.5249901,19.1977403 Z M51.85,5.1 C47.1555796,5.1 43.35,8.90557963 43.35,13.6 C43.35,18.2944204 47.1555796,22.1 51.85,22.1 C56.5444204,22.1 60.35,18.2944204 60.35,13.6 C60.35,8.90557963 56.5444204,5.1 51.85,5.1 Z M51.85,7.93333333 C54.9796136,7.93333333 57.5166667,10.4703864 57.5166667,13.6 C57.5166667,16.7296136 54.9796136,19.2666667 51.85,19.2666667 C48.7203864,19.2666667 46.1833333,16.7296136 46.1833333,13.6 C46.1833333,10.4703864 48.7203864,7.93333333 51.85,7.93333333 Z" id="Shape"></path>
        </g>
    </g>
</svg>